<svg width="91" height="40" xmlns="http://www.w3.org/2000/svg"><g fill="none" fill-rule="evenodd"><path d="M14.567 5.984L8.338 8.252.2 25.706a2.146 2.146 0 0 0 1.035 2.843l6.85 3.195V12.549l6.483-6.565" fill="#F50"/><path d="M22.9 3.624a2.147 2.147 0 0 0-3.027 0l-9.186 9.186v19.26c0 1.176.963 2.139 2.14 2.139h17.118c1.177 0 2.14-.963 2.14-2.14V12.81L22.9 3.624zm-1.513 4.11a1.343 1.343 0 1 1-.003-2.685 1.343 1.343 0 0 1 .003 2.686z" fill="#F50"/><path fill="#FFF" d="M19.34 27.125V12.807h-4.09v18.409h12.272v-4.09h-8.181m61.083-14.815c-5.366 0-9.716 4.35-9.716 9.717 0 5.366 4.35 9.716 9.716 9.716s9.716-4.35 9.716-9.716c0-5.367-4.35-9.717-9.716-9.717zm0 15.546a5.83 5.83 0 1 1 0-11.659 5.83 5.83 0 0 1 0 11.66zM34.799 12.774h4.09v18.41H34.8zm29.56 0h4.09V31.19h-4.09zm-6.953 0v10.943L41.744 12.311V31.19h4.091V20.34l15.662 11.405v-18.97h-4.091"/><path d="M0 0h91v40H0z"/></g></svg>