<?xml version="1.0" encoding="UTF-8"?>
<svg width="33px" height="32px" viewBox="0 0 33 32" version="1.1" xmlns="http://www.w3.org/2000/svg" xmlns:xlink="http://www.w3.org/1999/xlink">
    <!-- Generator: Sketch 53.2 (72643) - https://sketchapp.com -->
    <title>linio</title>
    <desc>Created with Sketch.</desc>
    <g id="Page-1" stroke="none" stroke-width="1" fill="none" fill-rule="evenodd">
        <g id="logo-linio" transform="translate(0.000000, -3.000000)" fill-rule="nonzero">
            <g id="linio" transform="translate(0.001285, 2.999802)">
                <path d="M14.5657153,2.98419773 L14.5667153,2.98419773 L8.08371529,9.54919773 L8.08371529,28.7441977 L1.23371529,25.5491977 C0.165739447,25.0472748 -0.296617039,23.7772463 0.198715294,22.7061977 L8.33671529,5.25219773 L14.5657153,2.98419773 Z M22.8987153,0.624197731 L32.0837153,9.81019773 L32.0837153,29.0691977 C32.0837153,30.2461977 31.1207153,31.2091977 29.9437153,31.2091977 L12.8257153,31.2091977 C11.6487153,31.2091977 10.6857153,30.2461977 10.6857153,29.0701977 L10.6857153,9.81019773 L19.8717153,0.624197731 C20.7090942,-0.20806591 22.0613364,-0.20806591 22.8987153,0.624197731 Z M21.3857153,4.73419773 L21.3857153,4.73519773 C22.1274337,4.73436928 22.7280437,4.13241614 22.7272153,3.39069773 C22.7263868,2.64897933 22.1244337,2.04836932 21.3827153,2.04919773 C20.8943425,2.03642483 20.4375545,2.28986172 20.1899199,2.71098907 C19.9422853,3.13211641 19.9428689,3.65450059 20.191444,4.07507351 C20.440019,4.49564643 20.8973723,4.74806194 21.3857153,4.73419773 Z" id="Combined-Shape" fill="#FF5500"></path>
                <polygon id="Path" fill="#FFFFFF" points="19.3387153 24.1251977 19.3387153 9.80719773 15.2487153 9.80719773 15.2487153 28.2161977 27.5207153 28.2161977 27.5207153 24.1261977 19.3397153 24.1261977"></polygon>
            </g>
        </g>
    </g>
</svg>