<svg width="24" height="24" xmlns="http://www.w3.org/2000/svg"><g fill="none" fill-rule="evenodd"><path d="M4 20h16V4H4z"/><path d="M11.987 5.046c-3.86 0-7 3.14-7 7s3.14 7 7 7 7-3.14 7-7-3.14-7-7-7" fill="#FFF"/><path d="M11.987 17.823a5.785 5.785 0 0 1-5.778-5.778 5.784 5.784 0 0 1 5.778-5.777 5.784 5.784 0 0 1 5.778 5.777 5.785 5.785 0 0 1-5.778 5.778m0-12.018c-3.441 0-6.24 2.8-6.24 6.24a6.247 6.247 0 0 0 6.24 6.24 6.247 6.247 0 0 0 6.24-6.24c0-3.44-2.8-6.24-6.24-6.24" fill="#45a00a"/><path d="M11.956 8.148a3.84 3.84 0 1 0 0 7.68 3.84 3.84 0 0 0 0-7.68" fill="#45a00a"/></g></svg>